<svg viewBox="0 0 1280 1280" width="100%" height="100%" x="0" y="0" xmlns="http://www.w3.org/2000/svg">
<defs>
  <pattern id="pattern" x="0" y="0" width="8" height="8" patternUnits="userSpaceOnUse">
    <polygon points="0,4 0,8 8,0 4,0" fill="#ffffff" />
    <polygon points="4,8 8,8 8,4" fill="#ffffff" />
  </pattern>
  <mask id="grating" x="0" y="0" width="1" height="1">
    <rect x="0" y="0" width="100%" height="100%" fill="url(#pattern)" />
  </mask>
</defs>
<g id="horizStripes">
  <rect fill="#1474B4" height="96" width="100%" x="0" y="0" />
  <rect fill="#101010" height="16" width="100%" x="0" y="96" />
  <rect fill="#1474B4" height="16" width="100%" x="0" y="112" />
  <rect fill="#101010" height="16" width="100%" x="0" y="128" />
  <rect fill="#1474B4" height="16" width="100%" x="0" y="144" />
  <rect fill="#101010" height="96" width="100%" x="0" y="160" />
  <rect fill="#285800" height="96" width="100%" x="0" y="256" />
  <rect fill="#101010" height="8" width="100%" x="0" y="352" />
  <rect fill="#E0E0E0" height="16" width="100%" x="0" y="360" />
  <rect fill="#101010" height="8" width="100%" x="0" y="376" />
  <rect fill="#285800" height="96" width="100%" x="0" y="384" />
  <rect fill="#101010" height="96" width="100%" x="0" y="480" />
  <rect fill="#1474B4" height="96" width="100%" x="0" y="576" />
  <rect fill="#101010" height="8" width="100%" x="0" y="672" />
  <rect fill="#C80000" height="16" width="100%" x="0" y="680" />
  <rect fill="#101010" height="8" width="100%" x="0" y="696" />
  <rect fill="#1474B4" height="96" width="100%" x="0" y="704" />
  <rect fill="#101010" height="96" width="100%" x="0" y="800" />
  <rect fill="#285800" height="96" width="100%" x="0" y="896" />
  <rect fill="#101010" height="8" width="100%" x="0" y="992" />
  <rect fill="#E0E0E0" height="16" width="100%" x="0" y="1000" />
  <rect fill="#101010" height="8" width="100%" x="0" y="1016" />
  <rect fill="#285800" height="96" width="100%" x="0" y="1024" />
  <rect fill="#101010" height="96" width="100%" x="0" y="1120" />
  <rect fill="#1474B4" height="16" width="100%" x="0" y="1216" />
  <rect fill="#101010" height="16" width="100%" x="0" y="1232" />
  <rect fill="#1474B4" height="16" width="100%" x="0" y="1248" />
  <rect fill="#101010" height="16" width="100%" x="0" y="1264" />
</g>
<g id="vertStripes" mask="url(#grating)">
  <rect fill="#1474B4" height="100%" width="96" x="0" y="0" />
  <rect fill="#101010" height="100%" width="16" x="96" y="0" />
  <rect fill="#1474B4" height="100%" width="16" x="112" y="0" />
  <rect fill="#101010" height="100%" width="16" x="128" y="0" />
  <rect fill="#1474B4" height="100%" width="16" x="144" y="0" />
  <rect fill="#101010" height="100%" width="96" x="160" y="0" />
  <rect fill="#285800" height="100%" width="96" x="256" y="0" />
  <rect fill="#101010" height="100%" width="8" x="352" y="0" />
  <rect fill="#E0E0E0" height="100%" width="16" x="360" y="0" />
  <rect fill="#101010" height="100%" width="8" x="376" y="0" />
  <rect fill="#285800" height="100%" width="96" x="384" y="0" />
  <rect fill="#101010" height="100%" width="96" x="480" y="0" />
  <rect fill="#1474B4" height="100%" width="96" x="576" y="0" />
  <rect fill="#101010" height="100%" width="8" x="672" y="0" />
  <rect fill="#C80000" height="100%" width="16" x="680" y="0" />
  <rect fill="#101010" height="100%" width="8" x="696" y="0" />
  <rect fill="#1474B4" height="100%" width="96" x="704" y="0" />
  <rect fill="#101010" height="100%" width="96" x="800" y="0" />
  <rect fill="#285800" height="100%" width="96" x="896" y="0" />
  <rect fill="#101010" height="100%" width="8" x="992" y="0" />
  <rect fill="#E0E0E0" height="100%" width="16" x="1000" y="0" />
  <rect fill="#101010" height="100%" width="8" x="1016" y="0" />
  <rect fill="#285800" height="100%" width="96" x="1024" y="0" />
  <rect fill="#101010" height="100%" width="96" x="1120" y="0" />
  <rect fill="#1474B4" height="100%" width="16" x="1216" y="0" />
  <rect fill="#101010" height="100%" width="16" x="1232" y="0" />
  <rect fill="#1474B4" height="100%" width="16" x="1248" y="0" />
  <rect fill="#101010" height="100%" width="16" x="1264" y="0" />
</g>
</svg>
